RobotoDelta-wdthmin.ufo
<glyph name="four" format="2">
  <advance width="856"/>
  <unicode hex="0034"/>
  <outline>
    <contour>
      <point x="520" y="0" type="line"/>
      <point x="692" y="0" type="line"/>
      <point x="692" y="1456" type="line"/>
      <point x="539" y="1456" type="line"/>
      <point x="6" y="466" type="line"/>
      <point x="6" y="344" type="line"/>
      <point x="851" y="344" type="line"/>
      <point x="851" y="496" type="line"/>
      <point x="649" y="496" type="line"/>
      <point x="585" y="486" type="line"/>
      <point x="184" y="486" type="line"/>
      <point x="508" y="1088" type="line"/>
      <point x="530" y="1088" type="line"/>
      <point x="530" y="448" type="line"/>
      <point x="520" y="398" type="line"/>
    </contour>
  </outline>
</glyph>
<glyph name="seven" format="2">
  <advance width="856"/>
  <unicode hex="0037"/>
  <outline>
    <contour>
      <point x="177" y="0" type="line"/>
      <point x="362" y="0" type="line"/>
      <point x="796" y="1354" type="line"/>
      <point x="796" y="1456" type="line"/>
      <point x="54" y="1456" type="line"/>
      <point x="54" y="1294" type="line"/>
      <point x="610" y="1294" type="line"/>
    </contour>
  </outline>
</glyph>
<glyph name="A" format="2">
  <advance width="887"/>
  <unicode hex="0041"/>
  <outline>
    <contour>
      <point x="0" y="0" type="line"/>
      <point x="180" y="0" type="line"/>
      <point x="411" y="1078" type="line" smooth="yes"/>
      <point x="419" y="1113"/>
      <point x="432" y="1174"/>
      <point x="438" y="1206" type="qcurve"/>
      <point x="446" y="1206" type="line"/>
      <point x="452" y="1174"/>
      <point x="465" y="1113"/>
      <point x="472" y="1078" type="qcurve" smooth="yes"/>
      <point x="700" y="0" type="line"/>
      <point x="887" y="0" type="line"/>
      <point x="540" y="1466" type="line"/>
      <point x="346" y="1466" type="line"/>
    </contour>
    <contour>
      <point x="204" y="372" type="line"/>
      <point x="679" y="372" type="line"/>
      <point x="634" y="536" type="line"/>
      <point x="250" y="536" type="line"/>
    </contour>
  </outline>
</glyph>
<glyph name="M" format="2">
  <advance width="1344"/>
  <unicode hex="004D"/>
  <outline>
    <contour>
      <point x="155" y="0" type="line"/>
      <point x="326" y="0" type="line"/>
      <point x="326" y="852" type="line" smooth="yes"/>
      <point x="326" y="888"/>
      <point x="326" y="975"/>
      <point x="325" y="1010" type="qcurve"/>
      <point x="331" y="1010" type="line"/>
      <point x="336" y="975"/>
      <point x="356" y="889"/>
      <point x="366" y="852" type="qcurve" smooth="yes"/>
      <point x="588" y="0" type="line"/>
      <point x="752" y="0" type="line"/>
      <point x="975" y="852" type="line" smooth="yes"/>
      <point x="985" y="889"/>
      <point x="1007" y="975"/>
      <point x="1015" y="1010" type="qcurve"/>
      <point x="1019" y="1010" type="line"/>
      <point x="1016" y="975"/>
      <point x="1014" y="888"/>
      <point x="1014" y="852" type="qcurve" smooth="yes"/>
      <point x="1014" y="0" type="line"/>
      <point x="1189" y="0" type="line"/>
      <point x="1189" y="1456" type="line"/>
      <point x="977" y="1456" type="line"/>
      <point x="709" y="445" type="line" smooth="yes"/>
      <point x="699" y="409"/>
      <point x="682" y="342"/>
      <point x="675" y="302" type="qcurve"/>
      <point x="669" y="302" type="line"/>
      <point x="663" y="342"/>
      <point x="644" y="409"/>
      <point x="635" y="445" type="qcurve" smooth="yes"/>
      <point x="368" y="1456" type="line"/>
      <point x="155" y="1456" type="line"/>
    </contour>
  </outline>
</glyph>
<glyph name="W" format="2">
  <advance width="1245"/>
  <unicode hex="0057"/>
  <outline>
    <contour>
      <point x="246" y="-10" type="line"/>
      <point x="430" y="-10" type="line"/>
      <point x="603" y="1024" type="line" smooth="yes"/>
      <point x="609" y="1061"/>
      <point x="618" y="1131"/>
      <point x="620" y="1166" type="qcurve"/>
      <point x="624" y="1166" type="line"/>
      <point x="627" y="1131"/>
      <point x="636" y="1060"/>
      <point x="642" y="1024" type="qcurve" smooth="yes"/>
      <point x="814" y="-10" type="line"/>
      <point x="1000" y="-10" type="line"/>
      <point x="1225" y="1456" type="line"/>
      <point x="1048" y="1456" type="line"/>
      <point x="923" y="450" type="line" smooth="yes"/>
      <point x="918" y="413"/>
      <point x="911" y="338"/>
      <point x="908" y="302" type="qcurve"/>
      <point x="904" y="302" type="line"/>
      <point x="901" y="338"/>
      <point x="895" y="413"/>
      <point x="889" y="450" type="qcurve" smooth="yes"/>
      <point x="719" y="1456" type="line"/>
      <point x="527" y="1456" type="line"/>
      <point x="364" y="450" type="line" smooth="yes"/>
      <point x="358" y="413"/>
      <point x="352" y="338"/>
      <point x="350" y="302" type="qcurve"/>
      <point x="345" y="302" type="line"/>
      <point x="342" y="338"/>
      <point x="335" y="413"/>
      <point x="330" y="450" type="qcurve" smooth="yes"/>
      <point x="198" y="1456" type="line"/>
      <point x="20" y="1456" type="line"/>
    </contour>
  </outline>
</glyph>
<glyph name="grave" format="1">
  <advance width="986"/>
  <unicode hex="0060"/>
  <outline>
    <contour>
      <point x="436" y="1156" type="line"/>
      <point x="595" y="1156" type="line"/>
      <point x="403" y="1456" type="line"/>
      <point x="198" y="1456" type="line"/>
    </contour>
    <contour>
      <point x="512" y="1052" type="move" name="_top"/>
    </contour>
  </outline>
</glyph>
<glyph name="c" format="2">
  <advance width="774"/>
  <unicode hex="0063"/>
  <outline>
    <contour>
      <point x="70" y="403" type="line" smooth="yes"/>
      <point x="70" y="188"/>
      <point x="238" y="-31"/>
      <point x="405" y="-30" type="qcurve" smooth="yes"/>
      <point x="567" y="-29"/>
      <point x="722.0" y="173.0"/>
      <point x="722" y="336" type="qcurve" smooth="yes"/>
      <point x="722" y="382" type="line"/>
      <point x="550" y="382" type="line"/>
      <point x="550" y="337" type="line" smooth="yes"/>
      <point x="550.0" y="240.0"/>
      <point x="488" y="128"/>
      <point x="405" y="128" type="qcurve" smooth="yes"/>
      <point x="322.0" y="128.0"/>
      <point x="252" y="240.0"/>
      <point x="252" y="384" type="qcurve" smooth="yes"/>
      <point x="252" y="681" type="line" smooth="yes"/>
      <point x="252" y="797.0"/>
      <point x="336" y="924.0"/>
      <point x="415" y="924.0" type="qcurve" smooth="yes"/>
      <point x="493" y="924"/>
      <point x="550.0" y="809.0"/>
      <point x="550" y="739" type="qcurve" smooth="yes"/>
      <point x="550" y="650" type="line"/>
      <point x="722" y="650" type="line"/>
      <point x="722" y="744" type="line" smooth="yes"/>
      <point x="722" y="884"/>
      <point x="584" y="1082"/>
      <point x="405" y="1082" type="qcurve" smooth="yes"/>
      <point x="242.0" y="1082.0"/>
      <point x="70" y="858"/>
      <point x="70" y="681" type="qcurve" smooth="yes"/>
    </contour>
  </outline>
</glyph>
<glyph name="e" format="2">
  <advance width="813"/>
  <unicode hex="0065"/>
  <outline>
    <contour>
      <point x="70" y="420" type="line" smooth="yes"/>
      <point x="70" y="182"/>
      <point x="269" y="-30"/>
      <point x="419" y="-30" type="qcurve"/>
      <point x="553" y="-30"/>
      <point x="720" y="117"/>
      <point x="745" y="214" type="qcurve"/>
      <point x="602" y="282" type="line"/>
      <point x="577" y="213"/>
      <point x="498" y="128"/>
      <point x="415" y="128.0" type="qcurve"/>
      <point x="331" y="128"/>
      <point x="248" y="248"/>
      <point x="248" y="380" type="qcurve" smooth="yes"/>
      <point x="248" y="622" type="line" smooth="yes"/>
      <point x="248" y="787"/>
      <point x="335" y="924"/>
      <point x="424" y="924" type="qcurve" smooth="yes"/>
      <point x="512" y="924"/>
      <point x="585" y="760"/>
      <point x="585" y="630" type="qcurve"/>
      <point x="611" y="630" type="line"/>
      <point x="158" y="630" type="line"/>
      <point x="158" y="486" type="line"/>
      <point x="771" y="486" type="line"/>
      <point x="771" y="630" type="line" smooth="yes"/>
      <point x="771" y="851"/>
      <point x="608" y="1082"/>
      <point x="432" y="1082" type="qcurve" smooth="yes"/>
      <point x="269" y="1082"/>
      <point x="70" y="860"/>
      <point x="70" y="622" type="qcurve" smooth="yes"/>
    </contour>
  </outline>
</glyph>
<glyph name="f" format="2">
  <advance width="495"/>
  <unicode hex="0066"/>
  <outline>
    <contour>
      <point x="142" y="0" type="line"/>
      <point x="320" y="0" type="line"/>
      <point x="320" y="972" type="line"/>
      <point x="320" y="994" type="line"/>
      <point x="320" y="1230" type="line" smooth="yes"/>
      <point x="320" y="1332"/>
      <point x="379" y="1405"/>
      <point x="411" y="1405" type="qcurve" smooth="yes"/>
      <point x="434" y="1405"/>
      <point x="478" y="1399"/>
      <point x="496" y="1394" type="qcurve"/>
      <point x="505" y="1540" type="line"/>
      <point x="480" y="1548"/>
      <point x="422" y="1556"/>
      <point x="396" y="1556" type="qcurve" smooth="yes"/>
      <point x="290" y="1556"/>
      <point x="142" y="1404"/>
      <point x="142" y="1230" type="qcurve" smooth="yes"/>
    </contour>
    <contour>
      <point x="25" y="904" type="line"/>
      <point x="476" y="904" type="line"/>
      <point x="476" y="1052" type="line"/>
      <point x="250" y="1052" type="line"/>
      <point x="212" y="1052" type="line"/>
      <point x="25" y="1052" type="line"/>
    </contour>
  </outline>
</glyph>
<glyph name="i" format="2">
  <advance width="432"/>
  <unicode hex="0069"/>
  <outline>
    <contour>
      <point x="127" y="0" type="line"/>
      <point x="305" y="0" type="line"/>
      <point x="305" y="1052" type="line"/>
      <point x="127" y="1052" type="line"/>
    </contour>
    <contour>
      <point x="110" y="1372" type="qcurve" smooth="yes"/>
      <point x="110" y="1328"/>
      <point x="165" y="1268"/>
      <point x="216" y="1268" type="qcurve" smooth="yes"/>
      <point x="267" y="1268"/>
      <point x="322" y="1328"/>
      <point x="322" y="1372" type="qcurve" smooth="yes"/>
      <point x="322" y="1416"/>
      <point x="267" y="1476"/>
      <point x="216" y="1476" type="qcurve" smooth="yes"/>
      <point x="165" y="1476"/>
      <point x="110" y="1416"/>
    </contour>
  </outline>
</glyph>
<glyph name="l" format="2">
  <advance width="428"/>
  <unicode hex="006C"/>
  <outline>
    <contour>
      <point x="125" y="0" type="line"/>
      <point x="303" y="0" type="line"/>
      <point x="303" y="1536" type="line"/>
      <point x="125" y="1536" type="line"/>
    </contour>
  </outline>
</glyph>
<glyph name="q" format="2">
  <advance width="889"/>
  <unicode hex="0071"/>
  <outline>
    <contour>
      <point x="70" y="430" type="line" smooth="yes"/>
      <point x="70" y="184"/>
      <point x="225" y="-20"/>
      <point x="357" y="-20.0" type="qcurve" smooth="yes"/>
      <point x="455" y="-20.0"/>
      <point x="556" y="42"/>
      <point x="586" y="97" type="qcurve"/>
      <point x="586" y="-416" type="line"/>
      <point x="764" y="-416" type="line"/>
      <point x="764" y="1052" type="line"/>
      <point x="601" y="1052" type="line"/>
      <point x="594" y="930" type="line"/>
      <point x="590" y="930" type="line"/>
      <point x="562" y="994"/>
      <point x="463" y="1072"/>
      <point x="373" y="1072" type="qcurve" smooth="yes"/>
      <point x="239" y="1072"/>
      <point x="70" y="848"/>
      <point x="70" y="642" type="qcurve" smooth="yes"/>
    </contour>
    <contour>
      <point x="252" y="430" type="qcurve" smooth="yes"/>
      <point x="252" y="642" type="line" smooth="yes"/>
      <point x="252" y="804"/>
      <point x="331" y="924"/>
      <point x="415" y="924" type="qcurve" smooth="yes"/>
      <point x="484" y="924"/>
      <point x="570" y="827"/>
      <point x="586" y="764" type="qcurve"/>
      <point x="586" y="288" type="line"/>
      <point x="570" y="222"/>
      <point x="485" y="128"/>
      <point x="413" y="128" type="qcurve" smooth="yes"/>
      <point x="326" y="128"/>
      <point x="252" y="243"/>
    </contour>
  </outline>
</glyph>
<glyph name="v" format="2">
  <advance width="690"/>
  <unicode hex="0076"/>
  <outline>
    <contour>
      <point x="0" y="1052" type="line"/>
      <point x="274" y="0" type="line"/>
      <point x="416" y="0" type="line"/>
      <point x="690" y="1052" type="line"/>
      <point x="525" y="1052" type="line"/>
      <point x="382" y="444" type="line" smooth="yes"/>
      <point x="373" y="404"/>
      <point x="354" y="324"/>
      <point x="350" y="284" type="qcurve"/>
      <point x="345" y="284" type="line"/>
      <point x="340" y="324"/>
      <point x="322" y="404"/>
      <point x="313" y="444" type="qcurve" smooth="yes"/>
      <point x="170" y="1052" type="line"/>
    </contour>
  </outline>
</glyph>
<glyph name="w" format="2">
  <advance width="1157"/>
  <unicode hex="0077"/>
  <outline>
    <contour>
      <point x="16" y="1052" type="line"/>
      <point x="236" y="0" type="line"/>
      <point x="397" y="0" type="line"/>
      <point x="540" y="657" type="line" smooth="yes"/>
      <point x="549" y="697"/>
      <point x="569" y="777"/>
      <point x="577" y="817" type="qcurve"/>
      <point x="581" y="817" type="line"/>
      <point x="589" y="777"/>
      <point x="606" y="697"/>
      <point x="618" y="657" type="qcurve" smooth="yes"/>
      <point x="761" y="0" type="line"/>
      <point x="922" y="0" type="line"/>
      <point x="1141" y="1052" type="line"/>
      <point x="975" y="1052" type="line"/>
      <point x="873" y="422" type="line" smooth="yes"/>
      <point x="867" y="382"/>
      <point x="849" y="264"/>
      <point x="844" y="224" type="qcurve"/>
      <point x="838" y="224" type="line"/>
      <point x="833" y="264"/>
      <point x="816" y="382"/>
      <point x="807" y="422" type="qcurve" smooth="yes"/>
      <point x="663" y="1052" type="line"/>
      <point x="502" y="1052" type="line"/>
      <point x="359" y="422" type="line" smooth="yes"/>
      <point x="350" y="382"/>
      <point x="332" y="264"/>
      <point x="327" y="224" type="qcurve"/>
      <point x="321" y="224" type="line"/>
      <point x="317" y="264"/>
      <point x="300" y="382"/>
      <point x="293" y="422" type="qcurve" smooth="yes"/>
      <point x="189" y="1052" type="line"/>
    </contour>
  </outline>
</glyph>
<glyph name="x" format="2">
  <advance width="734"/>
  <unicode hex="0078"/>
  <outline>
    <contour>
      <point x="14" y="0" type="line"/>
      <point x="202" y="0" type="line"/>
      <point x="415" y="486" type="line"/>
      <point x="430" y="486" type="line"/>
      <point x="703" y="1052" type="line"/>
      <point x="514" y="1052" type="line"/>
      <point x="314" y="580" type="line"/>
      <point x="300" y="580" type="line"/>
    </contour>
    <contour>
      <point x="32" y="1052" type="line"/>
      <point x="306" y="486" type="line"/>
      <point x="317" y="486" type="line"/>
      <point x="530" y="0" type="line"/>
      <point x="720" y="0" type="line"/>
      <point x="434" y="580" type="line"/>
      <point x="422" y="580" type="line"/>
      <point x="222" y="1052" type="line"/>
    </contour>
  </outline>
</glyph>
<glyph name="logicalnot" format="1">
  <advance width="1056"/>
  <unicode hex="00AC"/>
  <outline>
    <contour>
      <point x="134" y="630" type="line"/>
      <point x="754" y="630" type="line"/>
      <point x="754" y="378" type="line"/>
      <point x="922" y="378" type="line"/>
      <point x="922" y="796" type="line"/>
      <point x="134" y="796" type="line"/>
    </contour>
  </outline>
</glyph>
<glyph name="endash" format="1">
  <advance width="1200"/>
  <unicode hex="2013"/>
  <outline>
    <contour>
      <point x="124" y="547" type="line"/>
      <point x="1076" y="547" type="line"/>
      <point x="1076" y="714" type="line"/>
      <point x="124" y="714" type="line"/>
    </contour>
  </outline>
</glyph>
<glyph name="eight.pnum" format="2">
  <advance width="834"/>
  <outline>
    <contour>
      <point x="10" y="396" type="qcurve" smooth="yes"/>
      <point x="10" y="198"/>
      <point x="237" y="-20"/>
      <point x="412" y="-20" type="qcurve" smooth="yes"/>
      <point x="587" y="-20"/>
      <point x="814" y="213"/>
      <point x="814" y="396" type="qcurve" smooth="yes"/>
      <point x="814" y="556"/>
      <point x="689" y="747"/>
      <point x="589" y="793" type="qcurve"/>
      <point x="589" y="797" type="line"/>
      <point x="666" y="841"/>
      <point x="758" y="1008"/>
      <point x="758" y="1127" type="qcurve" smooth="yes"/>
      <point x="758" y="1277"/>
      <point x="570" y="1476"/>
      <point x="412" y="1476" type="qcurve" smooth="yes"/>
      <point x="254" y="1476"/>
      <point x="65" y="1277"/>
      <point x="65" y="1127" type="qcurve" smooth="yes"/>
      <point x="65" y="1008"/>
      <point x="158" y="841"/>
      <point x="240" y="797" type="qcurve"/>
      <point x="240" y="793" type="line"/>
      <point x="140" y="747"/>
      <point x="10" y="555"/>
    </contour>
    <contour>
      <point x="190" y="405" type="qcurve" smooth="yes"/>
      <point x="190" y="557"/>
      <point x="304" y="713"/>
      <point x="412" y="713" type="qcurve" smooth="yes"/>
      <point x="519" y="713"/>
      <point x="633" y="557"/>
      <point x="633" y="405" type="qcurve" smooth="yes"/>
      <point x="633" y="284"/>
      <point x="519" y="133"/>
      <point x="412" y="133" type="qcurve" smooth="yes"/>
      <point x="304" y="133"/>
      <point x="190" y="284"/>
    </contour>
    <contour>
      <point x="241" y="1118" type="qcurve" smooth="yes"/>
      <point x="241" y="1210"/>
      <point x="321" y="1323"/>
      <point x="412" y="1323" type="qcurve" smooth="yes"/>
      <point x="502" y="1323"/>
      <point x="582" y="1210"/>
      <point x="582" y="1118" type="qcurve" smooth="yes"/>
      <point x="582" y="1006"/>
      <point x="502" y="872"/>
      <point x="412" y="872" type="qcurve" smooth="yes"/>
      <point x="321" y="872"/>
      <point x="241" y="1006"/>
    </contour>
  </outline>
</glyph>
<glyph name="nine.pnum" format="2">
  <advance width="856"/>
  <outline>
    <contour>
      <point x="24" y="1002" type="qcurve" smooth="yes"/>
      <point x="24" y="787"/>
      <point x="196" y="522"/>
      <point x="367" y="522" type="qcurve" smooth="yes"/>
      <point x="532" y="522"/>
      <point x="684" y="787"/>
      <point x="684" y="1002" type="qcurve"/>
      <point x="616" y="1002" type="line"/>
      <point x="616" y="846"/>
      <point x="505" y="675"/>
      <point x="400" y="675" type="qcurve" smooth="yes"/>
      <point x="289" y="675"/>
      <point x="207" y="846"/>
      <point x="207" y="1002" type="qcurve" smooth="yes"/>
      <point x="207" y="1159"/>
      <point x="289" y="1333"/>
      <point x="400" y="1333" type="qcurve" smooth="yes"/>
      <point x="512" y="1333"/>
      <point x="610" y="1115"/>
      <point x="610" y="852" type="qcurve" smooth="yes"/>
      <point x="610" y="802" type="line" smooth="yes"/>
      <point x="610" y="452"/>
      <point x="392.0" y="123.0"/>
      <point x="161" y="123" type="qcurve" smooth="yes"/>
      <point x="144" y="123" type="line"/>
      <point x="144" y="-30" type="line"/>
      <point x="161" y="-30" type="line" smooth="yes"/>
      <point x="486" y="-30"/>
      <point x="790" y="432"/>
      <point x="790" y="812" type="qcurve" smooth="yes"/>
      <point x="790" y="842" type="line" smooth="yes"/>
      <point x="790" y="1182"/>
      <point x="581" y="1486"/>
      <point x="400" y="1486" type="qcurve" smooth="yes"/>
      <point x="220" y="1486"/>
      <point x="24" y="1218"/>
    </contour>
  </outline>
</glyph>
<glyph name="seven.pnum" format="2">
  <advance width="680"/>
  <outline>
    <contour>
      <point x="133" y="0" type="line"/>
      <point x="318" y="0" type="line"/>
      <point x="652" y="1354" type="line"/>
      <point x="652" y="1456" type="line"/>
      <point x="-10" y="1456" type="line"/>
      <point x="-10" y="1294" type="line"/>
      <point x="466" y="1294" type="line"/>
    </contour>
  </outline>
</glyph>
